<mxfile host="app.diagrams.net" modified="2024-06-21T07:53:29.764Z" agent="Mozilla/5.0 (Windows NT 10.0; Win64; x64) AppleWebKit/537.36 (KHTML, like Gecko) Chrome/126.0.0.0 Safari/537.36" etag="ZCnUC4SzaSgTOYm9TXeZ" version="24.6.0" type="github">
  <diagram name="Page-1" id="2YBvvXClWsGukQMizWep">
    <mxGraphModel dx="4809" dy="2538" grid="1" gridSize="10" guides="1" tooltips="1" connect="1" arrows="1" fold="1" page="1" pageScale="1" pageWidth="1100" pageHeight="850" math="0" shadow="0">
      <root>
        <mxCell id="0" />
        <mxCell id="1" parent="0" />
        <mxCell id="W0gw1Imxjig5qcPms8Uq-233" value="&lt;b&gt;&lt;font style=&quot;font-size: 13px;&quot;&gt;End User Application&lt;/font&gt;&lt;/b&gt;" style="shape=umlLifeline;perimeter=lifelinePerimeter;whiteSpace=wrap;html=1;container=0;dropTarget=0;collapsible=0;recursiveResize=0;outlineConnect=0;portConstraint=eastwest;newEdgeStyle={&quot;edgeStyle&quot;:&quot;elbowEdgeStyle&quot;,&quot;elbow&quot;:&quot;vertical&quot;,&quot;curved&quot;:0,&quot;rounded&quot;:0};sketch=1;hachureGap=4;jiggle=2;curveFitting=1;fontFamily=Architects Daughter;fontSource=https%3A%2F%2Ffonts.googleapis.com%2Fcss%3Ffamily%3DArchitects%2BDaughter;labelBackgroundColor=none;fillColor=#FAE5C7;strokeColor=#0F8B8D;fontColor=#143642;" vertex="1" parent="1">
          <mxGeometry x="-2890" y="-1640" width="100" height="720" as="geometry" />
        </mxCell>
        <mxCell id="W0gw1Imxjig5qcPms8Uq-234" value="" style="html=1;points=[];perimeter=orthogonalPerimeter;outlineConnect=0;targetShapes=umlLifeline;portConstraint=eastwest;newEdgeStyle={&quot;edgeStyle&quot;:&quot;elbowEdgeStyle&quot;,&quot;elbow&quot;:&quot;vertical&quot;,&quot;curved&quot;:0,&quot;rounded&quot;:0};sketch=1;hachureGap=4;jiggle=2;curveFitting=1;fontFamily=Architects Daughter;fontSource=https%3A%2F%2Ffonts.googleapis.com%2Fcss%3Ffamily%3DArchitects%2BDaughter;labelBackgroundColor=none;fillColor=#FAE5C7;strokeColor=#0F8B8D;fontColor=#143642;" vertex="1" parent="W0gw1Imxjig5qcPms8Uq-233">
          <mxGeometry x="45" y="70" width="10" height="570" as="geometry" />
        </mxCell>
        <mxCell id="W0gw1Imxjig5qcPms8Uq-237" value="&lt;b&gt;&lt;font style=&quot;font-size: 13px;&quot;&gt;CRS&amp;nbsp;&lt;/font&gt;&lt;/b&gt;&lt;b style=&quot;background-color: initial;&quot;&gt;&lt;font style=&quot;font-size: 13px;&quot;&gt;API&lt;/font&gt;&lt;/b&gt;" style="shape=umlLifeline;perimeter=lifelinePerimeter;whiteSpace=wrap;html=1;container=0;dropTarget=0;collapsible=0;recursiveResize=0;outlineConnect=0;portConstraint=eastwest;newEdgeStyle={&quot;edgeStyle&quot;:&quot;elbowEdgeStyle&quot;,&quot;elbow&quot;:&quot;vertical&quot;,&quot;curved&quot;:0,&quot;rounded&quot;:0};sketch=1;hachureGap=4;jiggle=2;curveFitting=1;fontFamily=Architects Daughter;fontSource=https%3A%2F%2Ffonts.googleapis.com%2Fcss%3Ffamily%3DArchitects%2BDaughter;labelBackgroundColor=none;fillColor=#FAE5C7;strokeColor=#0F8B8D;fontColor=#143642;" vertex="1" parent="1">
          <mxGeometry x="-2412" y="-1640" width="100" height="720" as="geometry" />
        </mxCell>
        <mxCell id="W0gw1Imxjig5qcPms8Uq-238" value="" style="html=1;points=[];perimeter=orthogonalPerimeter;outlineConnect=0;targetShapes=umlLifeline;portConstraint=eastwest;newEdgeStyle={&quot;edgeStyle&quot;:&quot;elbowEdgeStyle&quot;,&quot;elbow&quot;:&quot;vertical&quot;,&quot;curved&quot;:0,&quot;rounded&quot;:0};sketch=1;hachureGap=4;jiggle=2;curveFitting=1;fontFamily=Architects Daughter;fontSource=https%3A%2F%2Ffonts.googleapis.com%2Fcss%3Ffamily%3DArchitects%2BDaughter;labelBackgroundColor=none;fillColor=#FAE5C7;strokeColor=#0F8B8D;fontColor=#143642;" vertex="1" parent="W0gw1Imxjig5qcPms8Uq-237">
          <mxGeometry x="45" y="70" width="10" height="530" as="geometry" />
        </mxCell>
        <mxCell id="W0gw1Imxjig5qcPms8Uq-239" value="HTTP Request&lt;div&gt;CRS API&lt;/div&gt;" style="html=1;verticalAlign=bottom;endArrow=block;edgeStyle=elbowEdgeStyle;elbow=vertical;curved=0;rounded=0;sketch=1;hachureGap=4;jiggle=2;curveFitting=1;fontFamily=Architects Daughter;fontSource=https%3A%2F%2Ffonts.googleapis.com%2Fcss%3Ffamily%3DArchitects%2BDaughter;fontSize=12;startSize=8;endSize=8;labelBackgroundColor=none;strokeColor=#A8201A;fontColor=default;" edge="1" parent="1" source="W0gw1Imxjig5qcPms8Uq-234" target="W0gw1Imxjig5qcPms8Uq-291">
          <mxGeometry relative="1" as="geometry">
            <mxPoint x="-2830" y="-1540" as="sourcePoint" />
            <Array as="points">
              <mxPoint x="-2690" y="-1540" />
              <mxPoint x="-2647" y="-1520" />
            </Array>
            <mxPoint x="-2600" y="-1540" as="targetPoint" />
          </mxGeometry>
        </mxCell>
        <mxCell id="W0gw1Imxjig5qcPms8Uq-243" value="End User" style="shape=umlActor;verticalLabelPosition=bottom;verticalAlign=top;html=1;outlineConnect=0;sketch=1;hachureGap=4;jiggle=2;curveFitting=1;fontFamily=Architects Daughter;fontSource=https%3A%2F%2Ffonts.googleapis.com%2Fcss%3Ffamily%3DArchitects%2BDaughter;labelBackgroundColor=none;fillColor=#FAE5C7;strokeColor=#0F8B8D;fontColor=#143642;" vertex="1" parent="1">
          <mxGeometry x="-3050" y="-1580" width="40" height="70" as="geometry" />
        </mxCell>
        <mxCell id="W0gw1Imxjig5qcPms8Uq-235" value="" style="html=1;verticalAlign=bottom;startArrow=oval;endArrow=block;startSize=8;edgeStyle=elbowEdgeStyle;elbow=vertical;curved=0;rounded=0;sketch=1;hachureGap=4;jiggle=2;curveFitting=1;fontFamily=Architects Daughter;fontSource=https%3A%2F%2Ffonts.googleapis.com%2Fcss%3Ffamily%3DArchitects%2BDaughter;fontSize=12;labelBackgroundColor=none;strokeColor=#A8201A;fontColor=default;" edge="1" parent="1">
          <mxGeometry x="-0.0058" relative="1" as="geometry">
            <mxPoint x="-3000" y="-1540.14" as="sourcePoint" />
            <mxPoint x="-2845" y="-1540.14" as="targetPoint" />
            <Array as="points">
              <mxPoint x="-2890" y="-1540.14" />
            </Array>
            <mxPoint as="offset" />
          </mxGeometry>
        </mxCell>
        <mxCell id="W0gw1Imxjig5qcPms8Uq-258" value="Log in and&lt;div&gt;Main page rendering&lt;/div&gt;" style="edgeLabel;html=1;align=center;verticalAlign=middle;resizable=0;points=[];fontSize=12;sketch=1;hachureGap=4;jiggle=2;curveFitting=1;fontFamily=Architects Daughter;fontSource=https%3A%2F%2Ffonts.googleapis.com%2Fcss%3Ffamily%3DArchitects%2BDaughter;labelBackgroundColor=none;fontColor=#143642;" vertex="1" connectable="0" parent="W0gw1Imxjig5qcPms8Uq-235">
          <mxGeometry x="-0.6052" y="3" relative="1" as="geometry">
            <mxPoint x="46" y="-17" as="offset" />
          </mxGeometry>
        </mxCell>
        <mxCell id="W0gw1Imxjig5qcPms8Uq-256" value="&lt;b style=&quot;font-size: 13px;&quot;&gt;&lt;font style=&quot;font-size: 13px;&quot;&gt;Konan&lt;/font&gt;&lt;/b&gt;&lt;div style=&quot;font-size: 13px;&quot;&gt;&lt;b&gt;&lt;font style=&quot;font-size: 13px;&quot;&gt;Search 6&lt;/font&gt;&lt;/b&gt;&lt;/div&gt;" style="shape=umlLifeline;perimeter=lifelinePerimeter;whiteSpace=wrap;html=1;container=0;dropTarget=0;collapsible=0;recursiveResize=0;outlineConnect=0;portConstraint=eastwest;newEdgeStyle={&quot;edgeStyle&quot;:&quot;elbowEdgeStyle&quot;,&quot;elbow&quot;:&quot;vertical&quot;,&quot;curved&quot;:0,&quot;rounded&quot;:0};sketch=1;hachureGap=4;jiggle=2;curveFitting=1;fontFamily=Architects Daughter;fontSource=https%3A%2F%2Ffonts.googleapis.com%2Fcss%3Ffamily%3DArchitects%2BDaughter;labelBackgroundColor=none;fillColor=#FAE5C7;strokeColor=#0F8B8D;fontColor=#143642;" vertex="1" parent="1">
          <mxGeometry x="-2172" y="-1640" width="100" height="720" as="geometry" />
        </mxCell>
        <mxCell id="W0gw1Imxjig5qcPms8Uq-257" value="" style="html=1;points=[];perimeter=orthogonalPerimeter;outlineConnect=0;targetShapes=umlLifeline;portConstraint=eastwest;newEdgeStyle={&quot;edgeStyle&quot;:&quot;elbowEdgeStyle&quot;,&quot;elbow&quot;:&quot;vertical&quot;,&quot;curved&quot;:0,&quot;rounded&quot;:0};sketch=1;hachureGap=4;jiggle=2;curveFitting=1;fontFamily=Architects Daughter;fontSource=https%3A%2F%2Ffonts.googleapis.com%2Fcss%3Ffamily%3DArchitects%2BDaughter;labelBackgroundColor=none;fillColor=#FAE5C7;strokeColor=#0F8B8D;fontColor=#143642;" vertex="1" parent="W0gw1Imxjig5qcPms8Uq-256">
          <mxGeometry x="45" y="70" width="10" height="130" as="geometry" />
        </mxCell>
        <mxCell id="W0gw1Imxjig5qcPms8Uq-265" value="" style="html=1;points=[[0,0,0,0,5],[0,1,0,0,-5],[1,0,0,0,5],[1,1,0,0,-5]];perimeter=orthogonalPerimeter;outlineConnect=0;targetShapes=umlLifeline;portConstraint=eastwest;newEdgeStyle={&quot;curved&quot;:0,&quot;rounded&quot;:0};sketch=1;hachureGap=4;jiggle=2;curveFitting=1;fontFamily=Architects Daughter;fontSource=https%3A%2F%2Ffonts.googleapis.com%2Fcss%3Ffamily%3DArchitects%2BDaughter;labelBackgroundColor=none;fillColor=#FAE5C7;strokeColor=#0F8B8D;fontColor=#143642;" vertex="1" parent="W0gw1Imxjig5qcPms8Uq-256">
          <mxGeometry x="52" y="120" width="10" height="40" as="geometry" />
        </mxCell>
        <mxCell id="W0gw1Imxjig5qcPms8Uq-266" value="words&lt;div&gt;jaccard similarity&lt;/div&gt;" style="html=1;align=left;spacingLeft=2;endArrow=block;rounded=0;edgeStyle=orthogonalEdgeStyle;curved=0;rounded=0;sketch=1;hachureGap=4;jiggle=2;curveFitting=1;fontFamily=Architects Daughter;fontSource=https%3A%2F%2Ffonts.googleapis.com%2Fcss%3Ffamily%3DArchitects%2BDaughter;fontSize=12;startSize=8;endSize=8;labelBackgroundColor=none;strokeColor=#A8201A;fontColor=default;" edge="1" parent="W0gw1Imxjig5qcPms8Uq-256">
          <mxGeometry relative="1" as="geometry">
            <mxPoint x="55" y="100" as="sourcePoint" />
            <Array as="points">
              <mxPoint x="85" y="130" />
            </Array>
            <mxPoint x="60" y="130" as="targetPoint" />
          </mxGeometry>
        </mxCell>
        <mxCell id="W0gw1Imxjig5qcPms8Uq-268" value="" style="html=1;points=[];perimeter=orthogonalPerimeter;outlineConnect=0;targetShapes=umlLifeline;portConstraint=eastwest;newEdgeStyle={&quot;edgeStyle&quot;:&quot;elbowEdgeStyle&quot;,&quot;elbow&quot;:&quot;vertical&quot;,&quot;curved&quot;:0,&quot;rounded&quot;:0};sketch=1;hachureGap=4;jiggle=2;curveFitting=1;fontFamily=Architects Daughter;fontSource=https%3A%2F%2Ffonts.googleapis.com%2Fcss%3Ffamily%3DArchitects%2BDaughter;labelBackgroundColor=none;fillColor=#FAE5C7;strokeColor=#0F8B8D;fontColor=#143642;" vertex="1" parent="W0gw1Imxjig5qcPms8Uq-256">
          <mxGeometry x="45" y="240" width="10" height="117" as="geometry" />
        </mxCell>
        <mxCell id="W0gw1Imxjig5qcPms8Uq-275" value="" style="html=1;points=[];perimeter=orthogonalPerimeter;outlineConnect=0;targetShapes=umlLifeline;portConstraint=eastwest;newEdgeStyle={&quot;edgeStyle&quot;:&quot;elbowEdgeStyle&quot;,&quot;elbow&quot;:&quot;vertical&quot;,&quot;curved&quot;:0,&quot;rounded&quot;:0};sketch=1;hachureGap=4;jiggle=2;curveFitting=1;fontFamily=Architects Daughter;fontSource=https%3A%2F%2Ffonts.googleapis.com%2Fcss%3Ffamily%3DArchitects%2BDaughter;labelBackgroundColor=none;fillColor=#FAE5C7;strokeColor=#0F8B8D;fontColor=#143642;" vertex="1" parent="W0gw1Imxjig5qcPms8Uq-256">
          <mxGeometry x="45" y="397.5" width="10" height="125" as="geometry" />
        </mxCell>
        <mxCell id="W0gw1Imxjig5qcPms8Uq-276" value="" style="html=1;points=[[0,0,0,0,5],[0,1,0,0,-5],[1,0,0,0,5],[1,1,0,0,-5]];perimeter=orthogonalPerimeter;outlineConnect=0;targetShapes=umlLifeline;portConstraint=eastwest;newEdgeStyle={&quot;curved&quot;:0,&quot;rounded&quot;:0};sketch=1;hachureGap=4;jiggle=2;curveFitting=1;fontFamily=Architects Daughter;fontSource=https%3A%2F%2Ffonts.googleapis.com%2Fcss%3Ffamily%3DArchitects%2BDaughter;labelBackgroundColor=none;fillColor=#FAE5C7;strokeColor=#0F8B8D;fontColor=#143642;" vertex="1" parent="W0gw1Imxjig5qcPms8Uq-256">
          <mxGeometry x="52" y="440" width="10" height="40" as="geometry" />
        </mxCell>
        <mxCell id="W0gw1Imxjig5qcPms8Uq-274" value="words&lt;div&gt;jaccard similarity&lt;/div&gt;" style="html=1;align=left;spacingLeft=2;endArrow=block;rounded=0;edgeStyle=orthogonalEdgeStyle;curved=0;rounded=0;sketch=1;hachureGap=4;jiggle=2;curveFitting=1;fontFamily=Architects Daughter;fontSource=https%3A%2F%2Ffonts.googleapis.com%2Fcss%3Ffamily%3DArchitects%2BDaughter;fontSize=12;startSize=8;endSize=8;labelBackgroundColor=none;strokeColor=#A8201A;fontColor=default;" edge="1" parent="W0gw1Imxjig5qcPms8Uq-256">
          <mxGeometry relative="1" as="geometry">
            <mxPoint x="55" y="420" as="sourcePoint" />
            <Array as="points">
              <mxPoint x="85" y="450" />
            </Array>
            <mxPoint x="60" y="450" as="targetPoint" />
          </mxGeometry>
        </mxCell>
        <mxCell id="W0gw1Imxjig5qcPms8Uq-267" value="4 Class Serial number" style="html=1;verticalAlign=bottom;endArrow=open;dashed=1;endSize=8;curved=0;rounded=0;sketch=1;hachureGap=4;jiggle=2;curveFitting=1;fontFamily=Architects Daughter;fontSource=https%3A%2F%2Ffonts.googleapis.com%2Fcss%3Ffamily%3DArchitects%2BDaughter;fontSize=12;labelBackgroundColor=none;strokeColor=#A8201A;fontColor=default;" edge="1" parent="1">
          <mxGeometry x="0.0014" relative="1" as="geometry">
            <mxPoint x="-2127" y="-1480" as="sourcePoint" />
            <mxPoint x="-2357" y="-1480" as="targetPoint" />
            <mxPoint as="offset" />
          </mxGeometry>
        </mxCell>
        <mxCell id="W0gw1Imxjig5qcPms8Uq-271" value="4 Class Serial number" style="html=1;verticalAlign=bottom;endArrow=open;dashed=1;endSize=8;curved=0;rounded=0;sketch=1;hachureGap=4;jiggle=2;curveFitting=1;fontFamily=Architects Daughter;fontSource=https%3A%2F%2Ffonts.googleapis.com%2Fcss%3Ffamily%3DArchitects%2BDaughter;fontSize=12;labelBackgroundColor=none;strokeColor=#A8201A;fontColor=default;" edge="1" parent="1">
          <mxGeometry x="0.0005" relative="1" as="geometry">
            <mxPoint x="-2127" y="-1300" as="sourcePoint" />
            <mxPoint x="-2357" y="-1300" as="targetPoint" />
            <mxPoint as="offset" />
          </mxGeometry>
        </mxCell>
        <mxCell id="W0gw1Imxjig5qcPms8Uq-255" value="HTTP Request&lt;div&gt;&lt;b&gt;User Activity API&lt;/b&gt;&lt;/div&gt;" style="html=1;verticalAlign=bottom;endArrow=block;edgeStyle=elbowEdgeStyle;elbow=vertical;curved=0;rounded=0;sketch=1;hachureGap=4;jiggle=2;curveFitting=1;fontFamily=Architects Daughter;fontSource=https%3A%2F%2Ffonts.googleapis.com%2Fcss%3Ffamily%3DArchitects%2BDaughter;fontSize=12;startSize=8;endSize=8;labelBackgroundColor=none;strokeColor=#A8201A;fontColor=default;" edge="1" parent="1" source="W0gw1Imxjig5qcPms8Uq-238" target="W0gw1Imxjig5qcPms8Uq-275">
          <mxGeometry x="0.0018" relative="1" as="geometry">
            <mxPoint x="-2407" y="-1220" as="sourcePoint" />
            <Array as="points">
              <mxPoint x="-2317" y="-1220" />
              <mxPoint x="-2202" y="-1210" />
            </Array>
            <mxPoint x="-2147" y="-1220" as="targetPoint" />
            <mxPoint as="offset" />
          </mxGeometry>
        </mxCell>
        <mxCell id="W0gw1Imxjig5qcPms8Uq-277" value="4 Class Serial number" style="html=1;verticalAlign=bottom;endArrow=open;dashed=1;endSize=8;curved=0;rounded=0;sketch=1;hachureGap=4;jiggle=2;curveFitting=1;fontFamily=Architects Daughter;fontSource=https%3A%2F%2Ffonts.googleapis.com%2Fcss%3Ffamily%3DArchitects%2BDaughter;fontSize=12;labelBackgroundColor=none;strokeColor=#A8201A;fontColor=default;" edge="1" parent="1">
          <mxGeometry x="0.0005" relative="1" as="geometry">
            <mxPoint x="-2127" y="-1160" as="sourcePoint" />
            <mxPoint x="-2357" y="-1160" as="targetPoint" />
            <mxPoint as="offset" />
          </mxGeometry>
        </mxCell>
        <mxCell id="W0gw1Imxjig5qcPms8Uq-252" value="HTTP Request&lt;div&gt;&lt;b&gt;User Profile API&lt;/b&gt;&lt;/div&gt;" style="html=1;verticalAlign=bottom;endArrow=block;edgeStyle=elbowEdgeStyle;elbow=vertical;curved=0;rounded=0;sketch=1;hachureGap=4;jiggle=2;curveFitting=1;fontFamily=Architects Daughter;fontSource=https%3A%2F%2Ffonts.googleapis.com%2Fcss%3Ffamily%3DArchitects%2BDaughter;fontSize=12;startSize=8;endSize=8;labelBackgroundColor=none;strokeColor=#A8201A;fontColor=default;" edge="1" parent="1" source="W0gw1Imxjig5qcPms8Uq-238" target="W0gw1Imxjig5qcPms8Uq-257">
          <mxGeometry relative="1" as="geometry">
            <mxPoint x="-2372" y="-1540" as="sourcePoint" />
            <Array as="points">
              <mxPoint x="-2227" y="-1540" />
            </Array>
            <mxPoint x="-2142" y="-1540" as="targetPoint" />
          </mxGeometry>
        </mxCell>
        <mxCell id="W0gw1Imxjig5qcPms8Uq-254" value="HTTP Request&lt;div&gt;&lt;b&gt;Learning History API&lt;/b&gt;&lt;/div&gt;" style="html=1;verticalAlign=bottom;endArrow=block;edgeStyle=elbowEdgeStyle;elbow=vertical;curved=0;rounded=0;sketch=1;hachureGap=4;jiggle=2;curveFitting=1;fontFamily=Architects Daughter;fontSource=https%3A%2F%2Ffonts.googleapis.com%2Fcss%3Ffamily%3DArchitects%2BDaughter;fontSize=12;startSize=8;endSize=8;labelBackgroundColor=none;strokeColor=#A8201A;fontColor=default;" edge="1" parent="1" source="W0gw1Imxjig5qcPms8Uq-238" target="W0gw1Imxjig5qcPms8Uq-268">
          <mxGeometry x="0.0018" relative="1" as="geometry">
            <mxPoint x="-2407" y="-1380" as="sourcePoint" />
            <Array as="points">
              <mxPoint x="-2324" y="-1380" />
              <mxPoint x="-2209" y="-1370" />
            </Array>
            <mxPoint x="-2147" y="-1380" as="targetPoint" />
            <mxPoint as="offset" />
          </mxGeometry>
        </mxCell>
        <mxCell id="W0gw1Imxjig5qcPms8Uq-279" value="&lt;font style=&quot;font-size: 12px;&quot;&gt;12 Class Serial Number&lt;/font&gt;&lt;div style=&quot;&quot;&gt;&lt;font style=&quot;font-size: 12px;&quot;&gt;Json Result&lt;/font&gt;&lt;/div&gt;" style="html=1;verticalAlign=bottom;endArrow=open;dashed=1;endSize=8;curved=0;rounded=0;sketch=1;hachureGap=4;jiggle=2;curveFitting=1;fontFamily=Architects Daughter;fontSource=https%3A%2F%2Ffonts.googleapis.com%2Fcss%3Ffamily%3DArchitects%2BDaughter;fontSize=12;labelBackgroundColor=none;strokeColor=#A8201A;fontColor=default;" edge="1" parent="1">
          <mxGeometry relative="1" as="geometry">
            <mxPoint x="-2367" y="-1120" as="sourcePoint" />
            <mxPoint x="-2595" y="-1120" as="targetPoint" />
          </mxGeometry>
        </mxCell>
        <mxCell id="W0gw1Imxjig5qcPms8Uq-280" value="&lt;b style=&quot;font-size: 13px;&quot;&gt;&lt;font style=&quot;font-size: 13px;&quot;&gt;Konan&lt;/font&gt;&lt;/b&gt;&lt;div style=&quot;font-size: 13px;&quot;&gt;&lt;b&gt;Smart Match 2&lt;/b&gt;&lt;/div&gt;" style="shape=umlLifeline;perimeter=lifelinePerimeter;whiteSpace=wrap;html=1;container=0;dropTarget=0;collapsible=0;recursiveResize=0;outlineConnect=0;portConstraint=eastwest;newEdgeStyle={&quot;edgeStyle&quot;:&quot;elbowEdgeStyle&quot;,&quot;elbow&quot;:&quot;vertical&quot;,&quot;curved&quot;:0,&quot;rounded&quot;:0};sketch=1;hachureGap=4;jiggle=2;curveFitting=1;fontFamily=Architects Daughter;fontSource=https%3A%2F%2Ffonts.googleapis.com%2Fcss%3Ffamily%3DArchitects%2BDaughter;labelBackgroundColor=none;fillColor=#FAE5C7;strokeColor=#0F8B8D;fontColor=#143642;" vertex="1" parent="1">
          <mxGeometry x="-1930" y="-1640" width="100" height="720" as="geometry" />
        </mxCell>
        <mxCell id="W0gw1Imxjig5qcPms8Uq-284" value="" style="html=1;points=[];perimeter=orthogonalPerimeter;outlineConnect=0;targetShapes=umlLifeline;portConstraint=eastwest;newEdgeStyle={&quot;edgeStyle&quot;:&quot;elbowEdgeStyle&quot;,&quot;elbow&quot;:&quot;vertical&quot;,&quot;curved&quot;:0,&quot;rounded&quot;:0};sketch=1;hachureGap=4;jiggle=2;curveFitting=1;fontFamily=Architects Daughter;fontSource=https%3A%2F%2Ffonts.googleapis.com%2Fcss%3Ffamily%3DArchitects%2BDaughter;labelBackgroundColor=none;fillColor=#FAE5C7;strokeColor=#0F8B8D;fontColor=#143642;" vertex="1" parent="W0gw1Imxjig5qcPms8Uq-280">
          <mxGeometry x="45" y="240" width="10" height="117" as="geometry" />
        </mxCell>
        <mxCell id="W0gw1Imxjig5qcPms8Uq-286" value="" style="html=1;points=[[0,0,0,0,5],[0,1,0,0,-5],[1,0,0,0,5],[1,1,0,0,-5]];perimeter=orthogonalPerimeter;outlineConnect=0;targetShapes=umlLifeline;portConstraint=eastwest;newEdgeStyle={&quot;curved&quot;:0,&quot;rounded&quot;:0};sketch=1;hachureGap=4;jiggle=2;curveFitting=1;fontFamily=Architects Daughter;fontSource=https%3A%2F%2Ffonts.googleapis.com%2Fcss%3Ffamily%3DArchitects%2BDaughter;labelBackgroundColor=none;fillColor=#FAE5C7;strokeColor=#0F8B8D;fontColor=#143642;" vertex="1" parent="W0gw1Imxjig5qcPms8Uq-280">
          <mxGeometry x="55" y="300" width="10" height="40" as="geometry" />
        </mxCell>
        <mxCell id="W0gw1Imxjig5qcPms8Uq-287" value="CF-User-Based 2 Results&lt;div&gt;Segmentation 2 Results&lt;/div&gt;" style="html=1;align=left;spacingLeft=2;endArrow=block;rounded=0;edgeStyle=orthogonalEdgeStyle;curved=0;rounded=0;sketch=1;hachureGap=4;jiggle=2;curveFitting=1;fontFamily=Architects Daughter;fontSource=https%3A%2F%2Ffonts.googleapis.com%2Fcss%3Ffamily%3DArchitects%2BDaughter;fontSize=12;startSize=8;endSize=8;labelBackgroundColor=none;strokeColor=#A8201A;fontColor=default;" edge="1" parent="W0gw1Imxjig5qcPms8Uq-280">
          <mxGeometry relative="1" as="geometry">
            <mxPoint x="58" y="280" as="sourcePoint" />
            <Array as="points">
              <mxPoint x="88" y="310" />
            </Array>
            <mxPoint x="63" y="310" as="targetPoint" />
          </mxGeometry>
        </mxCell>
        <mxCell id="W0gw1Imxjig5qcPms8Uq-288" value="HTTP Request&lt;div&gt;&lt;b&gt;Recommendations API&lt;/b&gt;&lt;br&gt;&lt;/div&gt;" style="html=1;verticalAlign=bottom;endArrow=block;edgeStyle=elbowEdgeStyle;elbow=vertical;curved=0;rounded=0;sketch=1;hachureGap=4;jiggle=2;curveFitting=1;fontFamily=Architects Daughter;fontSource=https%3A%2F%2Ffonts.googleapis.com%2Fcss%3Ffamily%3DArchitects%2BDaughter;fontSize=12;startSize=8;endSize=8;labelBackgroundColor=none;strokeColor=#A8201A;fontColor=default;" edge="1" parent="1" source="W0gw1Imxjig5qcPms8Uq-268" target="W0gw1Imxjig5qcPms8Uq-284">
          <mxGeometry x="0.0018" relative="1" as="geometry">
            <mxPoint x="-2090" y="-1360" as="sourcePoint" />
            <Array as="points">
              <mxPoint x="-2057" y="-1360" />
              <mxPoint x="-1942" y="-1350" />
            </Array>
            <mxPoint x="-1860" y="-1360" as="targetPoint" />
            <mxPoint as="offset" />
          </mxGeometry>
        </mxCell>
        <mxCell id="W0gw1Imxjig5qcPms8Uq-289" value="4 Class Serial number&lt;div&gt;(2 CF, 2 SEG)&lt;/div&gt;" style="html=1;verticalAlign=bottom;endArrow=open;dashed=1;endSize=8;curved=0;rounded=0;sketch=1;hachureGap=4;jiggle=2;curveFitting=1;fontFamily=Architects Daughter;fontSource=https%3A%2F%2Ffonts.googleapis.com%2Fcss%3Ffamily%3DArchitects%2BDaughter;fontSize=12;labelBackgroundColor=none;strokeColor=#A8201A;fontColor=default;" edge="1" parent="1" source="W0gw1Imxjig5qcPms8Uq-284">
          <mxGeometry x="0.0005" relative="1" as="geometry">
            <mxPoint x="-1890" y="-1320" as="sourcePoint" />
            <mxPoint x="-2120" y="-1320" as="targetPoint" />
            <mxPoint as="offset" />
          </mxGeometry>
        </mxCell>
        <mxCell id="W0gw1Imxjig5qcPms8Uq-290" value="&lt;b&gt;&lt;font style=&quot;font-size: 13px;&quot;&gt;WAS&lt;/font&gt;&lt;/b&gt;" style="shape=umlLifeline;perimeter=lifelinePerimeter;whiteSpace=wrap;html=1;container=0;dropTarget=0;collapsible=0;recursiveResize=0;outlineConnect=0;portConstraint=eastwest;newEdgeStyle={&quot;edgeStyle&quot;:&quot;elbowEdgeStyle&quot;,&quot;elbow&quot;:&quot;vertical&quot;,&quot;curved&quot;:0,&quot;rounded&quot;:0};sketch=1;hachureGap=4;jiggle=2;curveFitting=1;fontFamily=Architects Daughter;fontSource=https%3A%2F%2Ffonts.googleapis.com%2Fcss%3Ffamily%3DArchitects%2BDaughter;labelBackgroundColor=none;fillColor=#FAE5C7;strokeColor=#0F8B8D;fontColor=#143642;" vertex="1" parent="1">
          <mxGeometry x="-2650" y="-1640" width="100" height="720" as="geometry" />
        </mxCell>
        <mxCell id="W0gw1Imxjig5qcPms8Uq-291" value="" style="html=1;points=[];perimeter=orthogonalPerimeter;outlineConnect=0;targetShapes=umlLifeline;portConstraint=eastwest;newEdgeStyle={&quot;edgeStyle&quot;:&quot;elbowEdgeStyle&quot;,&quot;elbow&quot;:&quot;vertical&quot;,&quot;curved&quot;:0,&quot;rounded&quot;:0};sketch=1;hachureGap=4;jiggle=2;curveFitting=1;fontFamily=Architects Daughter;fontSource=https%3A%2F%2Ffonts.googleapis.com%2Fcss%3Ffamily%3DArchitects%2BDaughter;labelBackgroundColor=none;fillColor=#FAE5C7;strokeColor=#0F8B8D;fontColor=#143642;" vertex="1" parent="W0gw1Imxjig5qcPms8Uq-290">
          <mxGeometry x="45" y="70" width="10" height="570" as="geometry" />
        </mxCell>
        <mxCell id="W0gw1Imxjig5qcPms8Uq-292" value="Member Serial Number&lt;div&gt;Request&lt;/div&gt;" style="html=1;verticalAlign=bottom;endArrow=block;edgeStyle=elbowEdgeStyle;elbow=vertical;curved=0;rounded=0;sketch=1;hachureGap=4;jiggle=2;curveFitting=1;fontFamily=Architects Daughter;fontSource=https%3A%2F%2Ffonts.googleapis.com%2Fcss%3Ffamily%3DArchitects%2BDaughter;fontSize=12;startSize=8;endSize=8;labelBackgroundColor=none;strokeColor=#A8201A;fontColor=default;" edge="1" parent="1" source="W0gw1Imxjig5qcPms8Uq-291" target="W0gw1Imxjig5qcPms8Uq-238">
          <mxGeometry relative="1" as="geometry">
            <mxPoint x="-2590" y="-1540.1999999999998" as="sourcePoint" />
            <Array as="points">
              <mxPoint x="-2450" y="-1540.1999999999998" />
              <mxPoint x="-2407" y="-1520.1999999999998" />
            </Array>
            <mxPoint x="-2360" y="-1540.1999999999998" as="targetPoint" />
          </mxGeometry>
        </mxCell>
        <mxCell id="W0gw1Imxjig5qcPms8Uq-293" value="&lt;font style=&quot;font-size: 12px;&quot;&gt;12 Class&lt;/font&gt;&lt;div style=&quot;&quot;&gt;&lt;span style=&quot;background-color: initial;&quot;&gt;&lt;font style=&quot;font-size: 12px;&quot;&gt;personal recommendation&lt;/font&gt;&lt;/span&gt;&lt;/div&gt;" style="html=1;verticalAlign=bottom;endArrow=open;dashed=1;endSize=8;curved=0;rounded=0;sketch=1;hachureGap=4;jiggle=2;curveFitting=1;fontFamily=Architects Daughter;fontSource=https%3A%2F%2Ffonts.googleapis.com%2Fcss%3Ffamily%3DArchitects%2BDaughter;fontSize=12;labelBackgroundColor=none;strokeColor=#A8201A;fontColor=default;" edge="1" parent="1" source="W0gw1Imxjig5qcPms8Uq-291">
          <mxGeometry x="0.0018" relative="1" as="geometry">
            <mxPoint x="-2612" y="-1080" as="sourcePoint" />
            <mxPoint x="-2830" y="-1080" as="targetPoint" />
            <mxPoint as="offset" />
          </mxGeometry>
        </mxCell>
      </root>
    </mxGraphModel>
  </diagram>
</mxfile>
